<svg xmlns="http://www.w3.org/2000/svg" width="20" height="22" viewBox="0 0 20 22">
  <metadata><?xpacket begin="﻿" id="W5M0MpCehiHzreSzNTczkc9d"?>
<x:xmpmeta xmlns:x="adobe:ns:meta/" x:xmptk="Adobe XMP Core 5.6-c138 79.159824, 2016/09/14-01:09:01        ">
   <rdf:RDF xmlns:rdf="http://www.w3.org/1999/02/22-rdf-syntax-ns#">
      <rdf:Description rdf:about=""/>
   </rdf:RDF>
</x:xmpmeta>
                                                                                                    
                                                                                                    
                                                                                                    
                                                                                                    
                                                                                                    
                                                                                                    
                                                                                                    
                                                                                                    
                                                                                                    
                                                                                                    
                                                                                                    
                                                                                                    
                                                                                                    
                                                                                                    
                                                                                                    
                                                                                                    
                                                                                                    
                                                                                                    
                                                                                                    
                                                                                                    
                           
<?xpacket end="w"?></metadata>
<defs>
    <style>
      .cls-1 {
        fill: #ed7c3a;
        fill-rule: evenodd;
      }
    </style>
  </defs>
  <path id="icons" class="cls-1" d="M44.643,185.466h-2.5v-1.1A0.362,0.362,0,0,0,41.786,184h-2.5a0.362,0.362,0,0,0-.357.366v1.1H31.071v-1.1A0.362,0.362,0,0,0,30.714,184h-2.5a0.362,0.362,0,0,0-.357.366v1.1h-2.5a0.362,0.362,0,0,0-.357.367v19.8a0.362,0.362,0,0,0,.357.367H44.643A0.362,0.362,0,0,0,45,205.633v-19.8A0.362,0.362,0,0,0,44.643,185.466Zm-5-.733h1.786v2.2H39.643v-2.2Zm-11.071,0h1.786v2.2H28.571v-2.2ZM25.714,186.2h2.143v1.1a0.361,0.361,0,0,0,.357.366h2.5a0.361,0.361,0,0,0,.357-0.366v-1.1h7.857v1.1a0.361,0.361,0,0,0,.357.366h2.5a0.361,0.361,0,0,0,.357-0.366v-1.1h2.143v3.3H25.714v-3.3Zm0,19.066V190.233H44.286v15.033H25.714Zm12.143-12.833H28.214v10.633H41.786V192.433H37.857Zm-2.5.733h2.5v2.567h-2.5v-2.567Zm2.5,5.867h-2.5v-2.567h2.5v2.567Zm-5.714-2.567h2.5v2.567h-2.5v-2.567Zm0-3.3h2.5v2.567h-2.5v-2.567Zm-3.214,0h2.5v2.567h-2.5v-2.567Zm0,3.3h2.5v2.567h-2.5v-2.567Zm2.5,5.867h-2.5v-2.567h2.5v2.567Zm3.214,0h-2.5v-2.567h2.5v2.567Zm3.214,0h-2.5v-2.567h2.5v2.567Zm3.214,0h-2.5v-2.567h2.5v2.567Zm0-3.3h-2.5v-2.567h2.5v2.567Zm0-5.867v2.567h-2.5v-2.567h2.5Z" transform="translate(-25 -184)"/>
</svg>
