<svg xmlns="http://www.w3.org/2000/svg" width="15" height="12" viewBox="0 0 15 12">
<defs>
    <style>
      .cls-1 {
        fill: #e16f2d;
        fill-rule: evenodd;
      }
    </style>
  </defs>
  <path id="Открытая" class="cls-1" d="M415.5,322.408a0.14,0.14,0,0,0-.136.1l-2.864,7v0.245c0,0.18-.012.245,0.141,0.245h11.19a0.633,0.633,0,0,0,.612-0.444l2.557-6.9v-0.245H415.5Zm-0.317-.49H425.5v-1.535a0.677,0.677,0,0,0-.683-0.669h-6.188L417.379,318h-4.7a0.677,0.677,0,0,0-.683.669v10.236l2.57-6.543A0.634,0.634,0,0,1,415.183,321.918Z" transform="translate(-412 -318)"/>
</svg>
